<?xml version="1.0" standalone="no"?><svg xmlns:xlink="http://www.w3.org/1999/xlink" xmlns="http://www.w3.org/2000/svg" viewBox="0 0 200 128.57167853580864" preserveAspectRatio="xMaxYMax slice"><g transform="scale(0.17497506605308744)"><rect x="0" y="0" width="1143.0222222222224" height="734.8" fill="#ffffff"/><rect x="0" y="0" width="81.64444444444445" height="81.64444444444445" fill="#ffffff"/><path d="M 0 40.82 A 40.82 40.82 0 0 1  40.82 81.64 L 0 40.82 A 40.82 40.82 0 0 0 40.82 81.64" fill="#dee2de"/><rect x="408.22222222222223" y="0" width="81.64444444444445" height="81.64444444444445" fill="#ffffff"/><path d="M 449.04 0 A 40.82 40.82 0 0 1  489.86 40.82 L 449.04 0 A 40.82 40.82 0 0 0 489.86 40.82" fill="#d5dad5"/><path d="M 408.22 81.64 A 40.82 40.82 0 0 1  449.04 40.82 L 408.22 81.64 A 40.82 40.82 0 0 0 449.04 40.82" fill="#fba99c"/><path d="M 489.87 0 A 81.64 81.64 0 0 1  571.51 81.64 L 489.87 0 A 81.64 81.64 0 0 0 571.51 81.64" fill="#f63214"/><path d="M 571.51 81.64 A 81.64 81.64 0 0 1  653.15 0 L 571.51 81.64 A 81.64 81.64 0 0 0 653.15 0" fill="#324b30"/><path d="M 979.73 81.64 A 81.64 81.64 0 0 1  1061.3700000000001 0 L 979.73 81.64 A 81.64 81.64 0 0 0 1061.3700000000001 0" fill="#566a54"/><rect x="81.64444444444445" y="81.64444444444445" width="81.64444444444445" height="81.64444444444445" fill="#ffffff"/><path d="M 122.47 81.64 A 40.82 40.82 0 0 1  163.29 122.46000000000001 L 122.47 81.64 A 40.82 40.82 0 0 0 163.29 122.46000000000001" fill="#70816f"/><path d="M 122.47 163.29 A 40.82 40.82 0 0 1  163.29 122.47 L 122.47 163.29 A 40.82 40.82 0 0 0 163.29 122.47" fill="#f97864"/><path d="M 163.29 163.28 A 81.64 81.64 0 0 1  244.93 81.64 L 163.29 163.28 A 81.64 81.64 0 0 0 244.93 81.64" fill="#fbab9f"/><rect x="244.93333333333334" y="81.64444444444445" width="81.64444444444445" height="81.64444444444445" fill="#ffffff"/><rect x="408.22222222222223" y="81.64444444444445" width="81.64444444444445" height="81.64444444444445" fill="#ffffff"/><path d="M 449.04 81.64 A 40.82 40.82 0 0 1  489.86 122.46000000000001 L 449.04 81.64 A 40.82 40.82 0 0 0 489.86 122.46000000000001" fill="#294327"/><rect x="734.8" y="81.64444444444445" width="81.64444444444445" height="81.64444444444445" fill="#ffffff"/><rect x="898.088888888889" y="81.64444444444445" width="81.64444444444445" height="81.64444444444445" fill="#ffffff"/><path d="M 938.91 163.29 A 40.82 40.82 0 0 1  979.73 122.47 L 938.91 163.29 A 40.82 40.82 0 0 0 979.73 122.47" fill="#f8644d"/><path d="M 979.73 81.64 A 81.64 81.64 0 0 1  1061.3700000000001 163.28 L 979.73 81.64 A 81.64 81.64 0 0 0 1061.3700000000001 163.28" fill="#e4e7e4"/><rect x="0" y="163.2888888888889" width="81.64444444444445" height="81.64444444444445" fill="#ffffff"/><path d="M 0 163.29 A 40.82 40.82 0 0 1  40.82 204.10999999999999 L 0 163.29 A 40.82 40.82 0 0 0 40.82 204.10999999999999" fill="#fcb3a8"/><path d="M 0 244.93 A 40.82 40.82 0 0 1  40.82 204.11 L 0 244.93 A 40.82 40.82 0 0 0 40.82 204.11" fill="#546953"/><rect x="326.5777777777778" y="163.2888888888889" width="81.64444444444445" height="81.64444444444445" fill="#ffffff"/><path d="M 326.58 204.10999999999999 A 40.82 40.82 0 0 1  367.4 163.29 L 326.58 204.10999999999999 A 40.82 40.82 0 0 0 367.4 163.29" fill="#eceeec"/><path d="M 367.4 204.11 A 40.82 40.82 0 0 1  408.21999999999997 244.93 L 367.4 204.11 A 40.82 40.82 0 0 0 408.21999999999997 244.93" fill="#d7dcd7"/><path d="M 408.22 244.93 A 81.64 81.64 0 0 1  489.86 163.29 L 408.22 244.93 A 81.64 81.64 0 0 0 489.86 163.29" fill="#f6f7f6"/><rect x="489.8666666666667" y="163.2888888888889" width="81.64444444444445" height="81.64444444444445" fill="#ffffff"/><path d="M 489.87 204.11 A 40.82 40.82 0 0 1  530.69 244.93 L 489.87 204.11 A 40.82 40.82 0 0 0 530.69 244.93" fill="#f7553c"/><path d="M 530.69 204.11 A 40.82 40.82 0 0 1  571.5100000000001 244.93 L 530.69 204.11 A 40.82 40.82 0 0 0 571.5100000000001 244.93" fill="#a9b3a8"/><rect x="898.088888888889" y="163.2888888888889" width="81.64444444444445" height="81.64444444444445" fill="#ffffff"/><path d="M 898.09 163.29 A 40.82 40.82 0 0 1  938.9100000000001 204.10999999999999 L 898.09 163.29 A 40.82 40.82 0 0 0 938.9100000000001 204.10999999999999" fill="#f52809"/><path d="M 938.91 244.93 A 40.82 40.82 0 0 1  979.73 204.11 L 938.91 244.93 A 40.82 40.82 0 0 0 979.73 204.11" fill="#fffaf9"/><path d="M 1061.38 163.29 A 81.64 81.64 0 0 1  1143.0200000000002 244.93 L 1061.38 163.29 A 81.64 81.64 0 0 0 1143.0200000000002 244.93" fill="#fcb8ae"/><rect x="0" y="244.93333333333334" width="81.64444444444445" height="81.64444444444445" fill="#ffffff"/><path d="M 40.82 244.93 A 40.82 40.82 0 0 1  81.64 285.75 L 40.82 244.93 A 40.82 40.82 0 0 0 81.64 285.75" fill="#fdcac2"/><path d="M 40.82 285.76 A 40.82 40.82 0 0 1  81.64 326.58 L 40.82 285.76 A 40.82 40.82 0 0 0 81.64 326.58" fill="#fba396"/><path d="M 244.93 326.57 A 81.64 81.64 0 0 1  326.57 244.93 L 244.93 326.57 A 81.64 81.64 0 0 0 326.57 244.93" fill="#fbb2a6"/><path d="M 326.58 326.57 A 81.64 81.64 0 0 1  408.21999999999997 244.93 L 326.58 326.57 A 81.64 81.64 0 0 0 408.21999999999997 244.93" fill="#284226"/><path d="M 408.22 326.57 A 81.64 81.64 0 0 1  489.86 244.93 L 408.22 326.57 A 81.64 81.64 0 0 0 489.86 244.93" fill="#637662"/><rect x="489.8666666666667" y="244.93333333333334" width="81.64444444444445" height="81.64444444444445" fill="#ffffff"/><path d="M 489.87 285.75 A 40.82 40.82 0 0 1  530.69 244.93 L 489.87 285.75 A 40.82 40.82 0 0 0 530.69 244.93" fill="#fcbdb3"/><path d="M 489.87 285.76 A 40.82 40.82 0 0 1  530.69 326.58 L 489.87 285.76 A 40.82 40.82 0 0 0 530.69 326.58" fill="#667864"/><path d="M 898.09 326.57 A 81.64 81.64 0 0 1  979.73 244.93 L 898.09 326.57 A 81.64 81.64 0 0 0 979.73 244.93" fill="#e1e4e0"/><rect x="0" y="326.5777777777778" width="81.64444444444445" height="81.64444444444445" fill="#ffffff"/><path d="M 40.82 408.21999999999997 A 40.82 40.82 0 0 1  81.64 367.4 L 40.82 408.21999999999997 A 40.82 40.82 0 0 0 81.64 367.4" fill="#829181"/><rect x="244.93333333333334" y="326.5777777777778" width="81.64444444444445" height="81.64444444444445" fill="#ffffff"/><path d="M 285.76 326.58 A 40.82 40.82 0 0 1  326.58 367.4 L 285.76 326.58 A 40.82 40.82 0 0 0 326.58 367.4" fill="#c8cec7"/><path d="M 489.87 326.58 A 81.64 81.64 0 0 1  571.51 408.21999999999997 L 489.87 326.58 A 81.64 81.64 0 0 0 571.51 408.21999999999997" fill="#899888"/><path d="M 816.44 408.21999999999997 A 81.64 81.64 0 0 1  898.08 326.58 L 816.44 408.21999999999997 A 81.64 81.64 0 0 0 898.08 326.58" fill="#fa8e7d"/><rect x="326.5777777777778" y="408.22222222222223" width="81.64444444444445" height="81.64444444444445" fill="#ffffff"/><path d="M 367.4 408.22 A 40.82 40.82 0 0 1  408.21999999999997 449.04 L 367.4 408.22 A 40.82 40.82 0 0 0 408.21999999999997 449.04" fill="#7e8d7d"/><path d="M 326.58 449.04 A 40.82 40.82 0 0 1  367.4 489.86 L 326.58 449.04 A 40.82 40.82 0 0 0 367.4 489.86" fill="#fcbbb1"/><path d="M 367.4 489.86 A 40.82 40.82 0 0 1  408.21999999999997 449.04 L 367.4 489.86 A 40.82 40.82 0 0 0 408.21999999999997 449.04" fill="#435a41"/><rect x="408.22222222222223" y="408.22222222222223" width="81.64444444444445" height="81.64444444444445" fill="#ffffff"/><path d="M 408.22 408.22 A 40.82 40.82 0 0 1  449.04 449.04 L 408.22 408.22 A 40.82 40.82 0 0 0 449.04 449.04" fill="#f6381b"/><path d="M 449.04 449.04 A 40.82 40.82 0 0 1  489.86 408.22 L 449.04 449.04 A 40.82 40.82 0 0 0 489.86 408.22" fill="#f52505"/><path d="M 408.22 449.04 A 40.82 40.82 0 0 1  449.04 489.86 L 408.22 449.04 A 40.82 40.82 0 0 0 449.04 489.86" fill="#60735f"/><path d="M 979.73 408.22 A 81.64 81.64 0 0 1  1061.3700000000001 489.86 L 979.73 408.22 A 81.64 81.64 0 0 0 1061.3700000000001 489.86" fill="#f2f3f2"/><rect x="1061.3777777777777" y="408.22222222222223" width="81.64444444444445" height="81.64444444444445" fill="#ffffff"/><path d="M 1061.38 449.04 A 40.82 40.82 0 0 1  1102.2 489.86 L 1061.38 449.04 A 40.82 40.82 0 0 0 1102.2 489.86" fill="#f63f23"/><path d="M 1102.2 449.04 A 40.82 40.82 0 0 1  1143.02 489.86 L 1102.2 449.04 A 40.82 40.82 0 0 0 1143.02 489.86" fill="#c5ccc5"/><path d="M 81.64 489.87 A 81.64 81.64 0 0 1  163.28 571.51 L 81.64 489.87 A 81.64 81.64 0 0 0 163.28 571.51" fill="#697b68"/><rect x="163.2888888888889" y="489.8666666666667" width="81.64444444444445" height="81.64444444444445" fill="#ffffff"/><path d="M 163.29 530.69 A 40.82 40.82 0 0 1  204.10999999999999 489.87 L 163.29 530.69 A 40.82 40.82 0 0 0 204.10999999999999 489.87" fill="#30492e"/><path d="M 204.11 530.69 A 40.82 40.82 0 0 1  244.93 489.87 L 204.11 530.69 A 40.82 40.82 0 0 0 244.93 489.87" fill="#f7573e"/><path d="M 326.58 571.51 A 81.64 81.64 0 0 1  408.21999999999997 489.87 L 326.58 571.51 A 81.64 81.64 0 0 0 408.21999999999997 489.87" fill="#f97662"/><rect x="571.5111111111112" y="489.8666666666667" width="81.64444444444445" height="81.64444444444445" fill="#ffffff"/><path d="M 612.33 489.87 A 40.82 40.82 0 0 1  653.1500000000001 530.69 L 612.33 489.87 A 40.82 40.82 0 0 0 653.1500000000001 530.69" fill="#d8ddd8"/><rect x="898.088888888889" y="489.8666666666667" width="81.64444444444445" height="81.64444444444445" fill="#ffffff"/><path d="M 898.09 530.69 A 40.82 40.82 0 0 1  938.9100000000001 489.87 L 898.09 530.69 A 40.82 40.82 0 0 0 938.9100000000001 489.87" fill="#fcb3a8"/><path d="M 938.91 489.87 A 40.82 40.82 0 0 1  979.73 530.69 L 938.91 489.87 A 40.82 40.82 0 0 0 979.73 530.69" fill="#fee1dc"/><path d="M 898.09 530.69 A 40.82 40.82 0 0 1  938.9100000000001 571.5100000000001 L 898.09 530.69 A 40.82 40.82 0 0 0 938.9100000000001 571.5100000000001" fill="#fba092"/><path d="M 938.91 530.69 A 40.82 40.82 0 0 1  979.73 571.5100000000001 L 938.91 530.69 A 40.82 40.82 0 0 0 979.73 571.5100000000001" fill="#596d57"/><path d="M 979.73 489.87 A 81.64 81.64 0 0 1  1061.3700000000001 571.51 L 979.73 489.87 A 81.64 81.64 0 0 0 1061.3700000000001 571.51" fill="#8a9889"/><path d="M 1061.38 489.87 A 81.64 81.64 0 0 1  1143.0200000000002 571.51 L 1061.38 489.87 A 81.64 81.64 0 0 0 1143.0200000000002 571.51" fill="#495f47"/><rect x="326.5777777777778" y="571.5111111111112" width="81.64444444444445" height="81.64444444444445" fill="#ffffff"/><path d="M 367.4 612.33 A 40.82 40.82 0 0 1  408.21999999999997 653.1500000000001 L 367.4 612.33 A 40.82 40.82 0 0 0 408.21999999999997 653.1500000000001" fill="#d8dcd7"/><rect x="408.22222222222223" y="571.5111111111112" width="81.64444444444445" height="81.64444444444445" fill="#ffffff"/><path d="M 449.04 612.33 A 40.82 40.82 0 0 1  489.86 571.51 L 449.04 612.33 A 40.82 40.82 0 0 0 489.86 571.51" fill="#fa9b8c"/><rect x="571.5111111111112" y="571.5111111111112" width="81.64444444444445" height="81.64444444444445" fill="#ffffff"/><path d="M 653.16 571.51 A 81.64 81.64 0 0 1  734.8 653.15 L 653.16 571.51 A 81.64 81.64 0 0 0 734.8 653.15" fill="#3c533a"/><rect x="816.4444444444445" y="571.5111111111112" width="81.64444444444445" height="81.64444444444445" fill="#ffffff"/><path d="M 857.27 571.51 A 40.82 40.82 0 0 1  898.09 612.33 L 857.27 571.51 A 40.82 40.82 0 0 0 898.09 612.33" fill="#f52808"/><path d="M 857.27 612.33 A 40.82 40.82 0 0 1  898.09 653.1500000000001 L 857.27 612.33 A 40.82 40.82 0 0 0 898.09 653.1500000000001" fill="#fa8776"/><rect x="979.7333333333333" y="571.5111111111112" width="81.64444444444445" height="81.64444444444445" fill="#ffffff"/><path d="M 979.73 612.33 A 40.82 40.82 0 0 1  1020.5500000000001 571.51 L 979.73 612.33 A 40.82 40.82 0 0 0 1020.5500000000001 571.51" fill="#9ba79a"/><path d="M 979.73 612.33 A 40.82 40.82 0 0 1  1020.5500000000001 653.1500000000001 L 979.73 612.33 A 40.82 40.82 0 0 0 1020.5500000000001 653.1500000000001" fill="#a1ada1"/><path d="M 1020.56 653.1500000000001 A 40.82 40.82 0 0 1  1061.3799999999999 612.33 L 1020.56 653.1500000000001 A 40.82 40.82 0 0 0 1061.3799999999999 612.33" fill="#fdccc4"/><rect x="244.93333333333334" y="653.1555555555556" width="81.64444444444445" height="81.64444444444445" fill="#ffffff"/><path d="M 285.76 653.16 A 40.82 40.82 0 0 1  326.58 693.98 L 285.76 653.16 A 40.82 40.82 0 0 0 326.58 693.98" fill="#536852"/><rect x="489.8666666666667" y="653.1555555555556" width="81.64444444444445" height="81.64444444444445" fill="#ffffff"/><path d="M 489.87 693.98 A 40.82 40.82 0 0 1  530.69 653.16 L 489.87 693.98 A 40.82 40.82 0 0 0 530.69 653.16" fill="#2f482d"/></g></svg>