<?xml version="1.0" standalone="no"?><svg xmlns:xlink="http://www.w3.org/1999/xlink" xmlns="http://www.w3.org/2000/svg" viewBox="0 0 300 192.85751780371297" preserveAspectRatio="xMaxYMax slice"><g transform="scale(0.26246259907963115)"><rect x="0" y="0" width="1143.0222222222224" height="734.8" fill="#ffffff"/><rect x="244.93333333333334" y="0" width="81.64444444444445" height="81.64444444444445" fill="#ffffff"/><path d="M 326.58 0 A 81.64 81.64 0 0 1  408.21999999999997 81.64 L 326.58 0 A 81.64 81.64 0 0 0 408.21999999999997 81.64" fill="#819080"/><rect x="408.22222222222223" y="0" width="81.64444444444445" height="81.64444444444445" fill="#ffffff"/><path d="M 408.22 40.82 A 40.82 40.82 0 0 1  449.04 81.64 L 408.22 40.82 A 40.82 40.82 0 0 0 449.04 81.64" fill="#f8644d"/><path d="M 489.87 0 A 81.64 81.64 0 0 1  571.51 81.64 L 489.87 0 A 81.64 81.64 0 0 0 571.51 81.64" fill="#e3e6e3"/><path d="M 734.8 0 A 81.64 81.64 0 0 1  816.4399999999999 81.64 L 734.8 0 A 81.64 81.64 0 0 0 816.4399999999999 81.64" fill="#abb5aa"/><rect x="1061.3777777777777" y="0" width="81.64444444444445" height="81.64444444444445" fill="#ffffff"/><path d="M 0 163.28 A 81.64 81.64 0 0 1  81.64 81.64 L 0 163.28 A 81.64 81.64 0 0 0 81.64 81.64" fill="#6f806e"/><path d="M 326.58 81.64 A 81.64 81.64 0 0 1  408.21999999999997 163.28 L 326.58 81.64 A 81.64 81.64 0 0 0 408.21999999999997 163.28" fill="#b9c1b8"/><rect x="0" y="163.2888888888889" width="81.64444444444445" height="81.64444444444445" fill="#ffffff"/><path d="M 0 244.93 A 40.82 40.82 0 0 1  40.82 204.11 L 0 244.93 A 40.82 40.82 0 0 0 40.82 204.11" fill="#fa8a79"/><path d="M 81.64 163.29 A 81.64 81.64 0 0 1  163.28 244.93 L 81.64 163.29 A 81.64 81.64 0 0 0 163.28 244.93" fill="#70816f"/><path d="M 408.22 244.93 A 81.64 81.64 0 0 1  489.86 163.29 L 408.22 244.93 A 81.64 81.64 0 0 0 489.86 163.29" fill="#fff8f7"/><rect x="489.8666666666667" y="163.2888888888889" width="81.64444444444445" height="81.64444444444445" fill="#ffffff"/><path d="M 489.87 163.29 A 40.82 40.82 0 0 1  530.69 204.10999999999999 L 489.87 163.29 A 40.82 40.82 0 0 0 530.69 204.10999999999999" fill="#fedfda"/><path d="M 489.87 244.93 A 40.82 40.82 0 0 1  530.69 204.11 L 489.87 244.93 A 40.82 40.82 0 0 0 530.69 204.11" fill="#f63619"/><rect x="653.1555555555556" y="163.2888888888889" width="81.64444444444445" height="81.64444444444445" fill="#ffffff"/><rect x="734.8" y="163.2888888888889" width="81.64444444444445" height="81.64444444444445" fill="#ffffff"/><path d="M 734.8 163.29 A 40.82 40.82 0 0 1  775.62 204.10999999999999 L 734.8 163.29 A 40.82 40.82 0 0 0 775.62 204.10999999999999" fill="#f8634c"/><rect x="244.93333333333334" y="244.93333333333334" width="81.64444444444445" height="81.64444444444445" fill="#ffffff"/><rect x="489.8666666666667" y="244.93333333333334" width="81.64444444444445" height="81.64444444444445" fill="#ffffff"/><rect x="571.5111111111112" y="244.93333333333334" width="81.64444444444445" height="81.64444444444445" fill="#ffffff"/><path d="M 571.51 326.58 A 40.82 40.82 0 0 1  612.33 285.76 L 571.51 326.58 A 40.82 40.82 0 0 0 612.33 285.76" fill="#f86049"/><rect x="816.4444444444445" y="244.93333333333334" width="81.64444444444445" height="81.64444444444445" fill="#ffffff"/><path d="M 857.27 285.75 A 40.82 40.82 0 0 1  898.09 244.93 L 857.27 285.75 A 40.82 40.82 0 0 0 898.09 244.93" fill="#fa9282"/><rect x="898.088888888889" y="244.93333333333334" width="81.64444444444445" height="81.64444444444445" fill="#ffffff"/><path d="M 898.09 285.75 A 40.82 40.82 0 0 1  938.9100000000001 244.93 L 898.09 285.75 A 40.82 40.82 0 0 0 938.9100000000001 244.93" fill="#aab4a9"/><path d="M 898.09 326.58 A 40.82 40.82 0 0 1  938.9100000000001 285.76 L 898.09 326.58 A 40.82 40.82 0 0 0 938.9100000000001 285.76" fill="#b5beb4"/><path d="M 979.73 326.57 A 81.64 81.64 0 0 1  1061.3700000000001 244.93 L 979.73 326.57 A 81.64 81.64 0 0 0 1061.3700000000001 244.93" fill="#f1f3f1"/><rect x="0" y="326.5777777777778" width="81.64444444444445" height="81.64444444444445" fill="#ffffff"/><path d="M 0 367.4 A 40.82 40.82 0 0 1  40.82 326.58 L 0 367.4 A 40.82 40.82 0 0 0 40.82 326.58" fill="#fef0ed"/><path d="M 81.64 408.21999999999997 A 81.64 81.64 0 0 1  163.28 326.58 L 81.64 408.21999999999997 A 81.64 81.64 0 0 0 163.28 326.58" fill="#fdd0c9"/><path d="M 81.64 408.22 A 81.64 81.64 0 0 1  163.28 489.86 L 81.64 408.22 A 81.64 81.64 0 0 0 163.28 489.86" fill="#fbafa3"/><path d="M 163.29 408.22 A 81.64 81.64 0 0 1  244.93 489.86 L 163.29 408.22 A 81.64 81.64 0 0 0 244.93 489.86" fill="#f86852"/><rect x="244.93333333333334" y="408.22222222222223" width="81.64444444444445" height="81.64444444444445" fill="#ffffff"/><path d="M 244.93 449.04 A 40.82 40.82 0 0 1  285.75 408.22 L 244.93 449.04 A 40.82 40.82 0 0 0 285.75 408.22" fill="#fee6e2"/><path d="M 285.76 449.04 A 40.82 40.82 0 0 1  326.58 408.22 L 285.76 449.04 A 40.82 40.82 0 0 0 326.58 408.22" fill="#fbfbfb"/><path d="M 285.76 489.86 A 40.82 40.82 0 0 1  326.58 449.04 L 285.76 489.86 A 40.82 40.82 0 0 0 326.58 449.04" fill="#748573"/><rect x="653.1555555555556" y="408.22222222222223" width="81.64444444444445" height="81.64444444444445" fill="#ffffff"/><path d="M 693.98 489.86 A 40.82 40.82 0 0 1  734.8000000000001 449.04 L 693.98 489.86 A 40.82 40.82 0 0 0 734.8000000000001 449.04" fill="#3c533a"/><path d="M 734.8 489.86 A 81.64 81.64 0 0 1  816.4399999999999 408.22 L 734.8 489.86 A 81.64 81.64 0 0 0 816.4399999999999 408.22" fill="#687a67"/><rect x="816.4444444444445" y="408.22222222222223" width="81.64444444444445" height="81.64444444444445" fill="#ffffff"/><rect x="979.7333333333333" y="408.22222222222223" width="81.64444444444445" height="81.64444444444445" fill="#ffffff"/><path d="M 1020.56 449.04 A 40.82 40.82 0 0 1  1061.3799999999999 408.22 L 1020.56 449.04 A 40.82 40.82 0 0 0 1061.3799999999999 408.22" fill="#f52e10"/><path d="M 1061.38 489.86 A 81.64 81.64 0 0 1  1143.0200000000002 408.22 L 1061.38 489.86 A 81.64 81.64 0 0 0 1143.0200000000002 408.22" fill="#f9816f"/><path d="M 326.58 489.87 A 81.64 81.64 0 0 1  408.21999999999997 571.51 L 326.58 489.87 A 81.64 81.64 0 0 0 408.21999999999997 571.51" fill="#f86b55"/><rect x="408.22222222222223" y="489.8666666666667" width="81.64444444444445" height="81.64444444444445" fill="#ffffff"/><path d="M 449.04 489.87 A 40.82 40.82 0 0 1  489.86 530.69 L 449.04 489.87 A 40.82 40.82 0 0 0 489.86 530.69" fill="#f52b0c"/><path d="M 449.04 530.69 A 40.82 40.82 0 0 1  489.86 571.5100000000001 L 449.04 530.69 A 40.82 40.82 0 0 0 489.86 571.5100000000001" fill="#8d9b8c"/><path d="M 489.87 571.51 A 81.64 81.64 0 0 1  571.51 489.87 L 489.87 571.51 A 81.64 81.64 0 0 0 571.51 489.87" fill="#fa9c8e"/><path d="M 571.51 489.87 A 81.64 81.64 0 0 1  653.15 571.51 L 571.51 489.87 A 81.64 81.64 0 0 0 653.15 571.51" fill="#fffdfd"/><rect x="734.8" y="489.8666666666667" width="81.64444444444445" height="81.64444444444445" fill="#ffffff"/><path d="M 775.62 530.69 A 40.82 40.82 0 0 1  816.44 571.5100000000001 L 775.62 530.69 A 40.82 40.82 0 0 0 816.44 571.5100000000001" fill="#f8644e"/><rect x="979.7333333333333" y="489.8666666666667" width="81.64444444444445" height="81.64444444444445" fill="#ffffff"/><path d="M 979.73 489.87 A 40.82 40.82 0 0 1  1020.5500000000001 530.69 L 979.73 489.87 A 40.82 40.82 0 0 0 1020.5500000000001 530.69" fill="#f63d21"/><path d="M 1020.56 571.5100000000001 A 40.82 40.82 0 0 1  1061.3799999999999 530.69 L 1020.56 571.5100000000001 A 40.82 40.82 0 0 0 1061.3799999999999 530.69" fill="#eceeec"/><path d="M 0 571.51 A 81.64 81.64 0 0 1  81.64 653.15 L 0 571.51 A 81.64 81.64 0 0 0 81.64 653.15" fill="#637561"/><path d="M 326.58 653.15 A 81.64 81.64 0 0 1  408.21999999999997 571.51 L 326.58 653.15 A 81.64 81.64 0 0 0 408.21999999999997 571.51" fill="#9da89c"/><rect x="408.22222222222223" y="571.5111111111112" width="81.64444444444445" height="81.64444444444445" fill="#ffffff"/><path d="M 449.04 612.33 A 40.82 40.82 0 0 1  489.86 571.51 L 449.04 612.33 A 40.82 40.82 0 0 0 489.86 571.51" fill="#fdd4ce"/><path d="M 449.04 612.33 A 40.82 40.82 0 0 1  489.86 653.1500000000001 L 449.04 612.33 A 40.82 40.82 0 0 0 489.86 653.1500000000001" fill="#fa9586"/><path d="M 571.51 571.51 A 81.64 81.64 0 0 1  653.15 653.15 L 571.51 571.51 A 81.64 81.64 0 0 0 653.15 653.15" fill="#bcc4bc"/><path d="M 734.8 653.15 A 81.64 81.64 0 0 1  816.4399999999999 571.51 L 734.8 653.15 A 81.64 81.64 0 0 0 816.4399999999999 571.51" fill="#919e90"/><path d="M 244.93 734.8 A 81.64 81.64 0 0 1  326.57 653.16 L 244.93 734.8 A 81.64 81.64 0 0 0 326.57 653.16" fill="#fa8f7f"/><path d="M 408.22 653.16 A 81.64 81.64 0 0 1  489.86 734.8 L 408.22 653.16 A 81.64 81.64 0 0 0 489.86 734.8" fill="#b0b9af"/><rect x="571.5111111111112" y="653.1555555555556" width="81.64444444444445" height="81.64444444444445" fill="#ffffff"/><path d="M 571.51 693.98 A 40.82 40.82 0 0 1  612.33 653.16 L 571.51 693.98 A 40.82 40.82 0 0 0 612.33 653.16" fill="#728371"/><path d="M 612.33 693.98 A 40.82 40.82 0 0 1  653.1500000000001 734.8000000000001 L 612.33 693.98 A 40.82 40.82 0 0 0 653.1500000000001 734.8000000000001" fill="#f7543b"/><path d="M 734.8 734.8 A 81.64 81.64 0 0 1  816.4399999999999 653.16 L 734.8 734.8 A 81.64 81.64 0 0 0 816.4399999999999 653.16" fill="#fcc1b8"/><path d="M 898.09 653.16 A 81.64 81.64 0 0 1  979.73 734.8 L 898.09 653.16 A 81.64 81.64 0 0 0 979.73 734.8" fill="#f97864"/></g></svg>